<svg width="16" height="16" viewBox="0 0 16 16" fill="none" xmlns="http://www.w3.org/2000/svg">
<circle cx="8" cy="8" r="7" fill="#5EADF2"/>
<path fill-rule="evenodd" clip-rule="evenodd" d="M11.7865 5.22024C11.8542 5.28988 11.9079 5.37261 11.9446 5.46368C11.9813 5.55476 12.0001 5.6524 12.0001 5.751C12.0001 5.84961 11.9813 5.94725 11.9446 6.03833C11.9079 6.1294 11.8542 6.21213 11.7865 6.28177L7.42409 10.7798C7.35655 10.8496 7.27632 10.905 7.18799 10.9428C7.09966 10.9805 7.00496 11 6.90933 11C6.81369 11 6.71899 10.9805 6.63066 10.9428C6.54233 10.905 6.4621 10.8496 6.39456 10.7798L4.21335 8.53076C4.14575 8.46106 4.09212 8.37832 4.05554 8.28725C4.01895 8.19618 4.00012 8.09857 4.00012 8C4.00012 7.90143 4.01895 7.80382 4.05554 7.71275C4.09212 7.62168 4.14575 7.53894 4.21335 7.46924C4.28095 7.39954 4.3612 7.34425 4.44952 7.30652C4.53785 7.2688 4.63251 7.24939 4.72811 7.24939C4.82371 7.24939 4.91838 7.2688 5.0067 7.30652C5.09503 7.34425 5.17528 7.39954 5.24288 7.46924L6.90933 9.18897L10.757 5.22024C10.8245 5.15043 10.9048 5.09504 10.9931 5.05725C11.0814 5.01945 11.1761 5 11.2718 5C11.3674 5 11.4621 5.01945 11.5504 5.05725C11.6387 5.09504 11.719 5.15043 11.7865 5.22024Z" fill="white"/>
<path d="M10.2731 2.51293L9.35205 1.56893L10.0671 0.870928L10.6891 1.50793L11.5791 1.49693C11.9643 1.49237 12.3466 1.56489 12.7034 1.71022C13.0602 1.85555 13.3844 2.07076 13.6568 2.34319C13.9292 2.61562 14.1444 2.93977 14.2898 3.29659C14.4351 3.65341 14.5076 4.03568 14.5031 4.42093L14.4931 5.31093L15.1291 5.93293C15.4045 6.2021 15.6234 6.52361 15.7728 6.87858C15.9223 7.23354 15.9992 7.61479 15.9992 7.99993C15.9992 8.38507 15.9223 8.76632 15.7728 9.12128C15.6234 9.47624 15.4045 9.79776 15.1291 10.0669L14.4921 10.6889L14.5031 11.5789C14.5076 11.9642 14.4351 12.3465 14.2898 12.7033C14.1444 13.0601 13.9292 13.3842 13.6568 13.6567C13.3844 13.9291 13.0602 14.1443 12.7034 14.2896C12.3466 14.435 11.9643 14.5075 11.5791 14.5029L10.6891 14.4929L10.0671 15.1289C9.79788 15.4044 9.47637 15.6233 9.1214 15.7727C8.76644 15.9221 8.38519 15.9991 8.00005 15.9991C7.61491 15.9991 7.23366 15.9221 6.8787 15.7727C6.52373 15.6233 6.20222 15.4044 5.93305 15.1289L5.31105 14.4919L4.42105 14.5029C4.0358 14.5075 3.65353 14.435 3.29671 14.2896C2.9399 14.1443 2.61574 13.9291 2.34331 13.6567C2.07088 13.3842 1.85567 13.0601 1.71034 12.7033C1.56501 12.3465 1.49249 11.9642 1.49705 11.5789L1.50705 10.6889L0.87105 10.0669C0.59559 9.79776 0.37671 9.47624 0.227273 9.12128C0.0778352 8.76632 0.000854492 8.38507 0.000854492 7.99993C0.000854492 7.61479 0.0778352 7.23354 0.227273 6.87858C0.37671 6.52361 0.59559 6.2021 0.87105 5.93293L1.50805 5.31093L1.49705 4.42093C1.49249 4.03568 1.56501 3.65341 1.71034 3.29659C1.85567 2.93977 2.07088 2.61562 2.34331 2.34319C2.61574 2.07076 2.9399 1.85555 3.29671 1.71022C3.65353 1.56489 4.0358 1.49237 4.42105 1.49693L5.31105 1.50693L5.93305 0.870928C6.20222 0.595468 6.52373 0.376588 6.8787 0.227151C7.23366 0.0777131 7.61491 0.000732422 8.00005 0.000732422C8.38519 0.000732422 8.76644 0.0777131 9.1214 0.227151C9.47637 0.376588 9.79788 0.595468 10.0671 0.870928L9.35205 1.56893C9.17601 1.38871 8.96572 1.24551 8.73354 1.14774C8.50136 1.04997 8.25198 0.999608 8.00005 0.999608C7.74812 0.999608 7.49874 1.04997 7.26656 1.14774C7.03438 1.24551 6.82409 1.38871 6.64805 1.56893L5.72805 2.51293L4.40805 2.49693C4.15623 2.49411 3.90638 2.54165 3.67319 2.63676C3.44 2.73186 3.22817 2.8726 3.05014 3.05073C2.87211 3.22885 2.73147 3.44076 2.63649 3.674C2.54151 3.90724 2.4941 4.15711 2.49705 4.40893L2.51305 5.72693L1.56905 6.64793C1.38884 6.82397 1.24564 7.03426 1.14787 7.26644C1.0501 7.49862 0.99973 7.748 0.99973 7.99993C0.99973 8.25185 1.0501 8.50124 1.14787 8.73342C1.24564 8.9656 1.38884 9.17589 1.56905 9.35193L2.51305 10.2719L2.49705 11.5919C2.49423 11.8438 2.54177 12.0936 2.63688 12.3268C2.73198 12.56 2.87273 12.7718 3.05085 12.9498C3.22897 13.1279 3.44088 13.2685 3.67412 13.3635C3.90736 13.4585 4.15723 13.5059 4.40905 13.5029L5.72705 13.4869L6.64805 14.4309C6.82409 14.6111 7.03438 14.7543 7.26656 14.8521C7.49874 14.9499 7.74812 15.0002 8.00005 15.0002C8.25198 15.0002 8.50136 14.9499 8.73354 14.8521C8.96572 14.7543 9.17601 14.6111 9.35205 14.4309L10.2721 13.4869L11.5921 13.5029C11.8439 13.5057 12.0937 13.4582 12.3269 13.3631C12.5601 13.268 12.7719 13.1273 12.95 12.9491C13.128 12.771 13.2686 12.5591 13.3636 12.3259C13.4586 12.0926 13.506 11.8427 13.5031 11.5909L13.4871 10.2729L14.4311 9.35193C14.6113 9.17589 14.7545 8.9656 14.8522 8.73342C14.95 8.50124 15.0004 8.25185 15.0004 7.99993C15.0004 7.748 14.95 7.49862 14.8522 7.26644C14.7545 7.03426 14.6113 6.82397 14.4311 6.64793L13.4871 5.72793L13.5031 4.40793C13.5059 4.15611 13.4583 3.90626 13.3632 3.67307C13.2681 3.43988 13.1274 3.22805 12.9493 3.05002C12.7711 2.87199 12.5592 2.73135 12.326 2.63637C12.0927 2.54139 11.8429 2.49398 11.5911 2.49693L10.2731 2.51293Z" fill="#5EADF2"/>
</svg>
