<svg width="72" height="32" viewBox="0 0 72 32" fill="none" xmlns="http://www.w3.org/2000/svg">
<path d="M26.7333 14.6666H5.26667C4.56711 14.6666 4 15.2337 4 15.9333V16.0666C4 16.7662 4.56711 17.3333 5.26667 17.3333H26.7333C27.4329 17.3333 28 16.7662 28 16.0666V15.9333C28 15.2337 27.4329 14.6666 26.7333 14.6666Z" fill="white"/>
<path d="M26.7333 21.3334H5.26667C4.56711 21.3334 4 21.9005 4 22.6V22.7334C4 23.4329 4.56711 24 5.26667 24H26.7333C27.4329 24 28 23.4329 28 22.7334V22.6C28 21.9005 27.4329 21.3334 26.7333 21.3334Z" fill="white"/>
<path d="M26.7333 8H5.26667C4.56711 8 4 8.56711 4 9.26667V9.4C4 10.0996 4.56711 10.6667 5.26667 10.6667H26.7333C27.4329 10.6667 28 10.0996 28 9.4V9.26667C28 8.56711 27.4329 8 26.7333 8Z" fill="white"/>
<path d="M56.0001 2.66663C52.4778 2.71154 49.1125 4.13072 46.6217 6.62154C44.1308 9.11235 42.7117 12.4777 42.6667 16C42.6832 18.0518 43.173 20.0722 44.0981 21.9039C45.0232 23.7355 46.3585 25.3289 48.0001 26.56V26.6666H48.1334C50.391 28.3966 53.1559 29.3342 56.0001 29.3342C58.8443 29.3342 61.6092 28.3966 63.8667 26.6666H64.0001V26.56C65.6417 25.3289 66.977 23.7355 67.9021 21.9039C68.8271 20.0722 69.3169 18.0518 69.3334 16C69.2885 12.4777 67.8693 9.11235 65.3785 6.62154C62.8877 4.13072 59.5223 2.71154 56.0001 2.66663ZM50.7601 25.24C50.9547 24.3486 51.4483 23.5505 52.1589 22.9781C52.8694 22.4058 53.7543 22.0936 54.6667 22.0933H57.3334C58.2458 22.0936 59.1307 22.4058 59.8413 22.9781C60.5519 23.5505 61.0454 24.3486 61.2401 25.24C59.6519 26.1744 57.8428 26.6671 56.0001 26.6671C54.1574 26.6671 52.3483 26.1744 50.7601 25.24ZM63.4801 23.52C62.9729 22.3079 62.1189 21.2727 61.0253 20.5444C59.9317 19.8162 58.6473 19.4273 57.3334 19.4266H54.6667C53.3529 19.4273 52.0684 19.8162 50.9749 20.5444C49.8813 21.2727 49.0272 22.3079 48.5201 23.52C47.521 22.5373 46.7253 21.3674 46.1785 20.077C45.6317 18.7867 45.3446 17.4013 45.3334 16C45.368 13.1817 46.5029 10.4887 48.4958 8.49573C50.4888 6.50279 53.1819 5.36788 56.0001 5.33329C58.8183 5.36788 61.5114 6.50279 63.5043 8.49573C65.4973 10.4887 66.6322 13.1817 66.6667 16C66.6556 17.4013 66.3684 18.7867 65.8217 20.077C65.2749 21.3674 64.4792 22.5373 63.4801 23.52Z" fill="white"/>
<path d="M56 7.99995C55.2952 7.98353 54.5943 8.11026 53.9398 8.37247C53.2853 8.63468 52.6908 9.02693 52.1922 9.52549C51.6937 10.024 51.3014 10.6185 51.0392 11.273C50.777 11.9275 50.6503 12.6284 50.6667 13.3333C50.6503 14.0382 50.777 14.739 51.0392 15.3935C51.3014 16.048 51.6937 16.6425 52.1922 17.1411C52.6908 17.6396 53.2853 18.0319 53.9398 18.2941C54.5943 18.5563 55.2952 18.683 56 18.6666C56.7049 18.683 57.4058 18.5563 58.0603 18.2941C58.7148 18.0319 59.3093 17.6396 59.8078 17.1411C60.3064 16.6425 60.6986 16.048 60.9608 15.3935C61.2231 14.739 61.3498 14.0382 61.3334 13.3333C61.3498 12.6284 61.2231 11.9275 60.9608 11.273C60.6986 10.6185 60.3064 10.024 59.8078 9.52549C59.3093 9.02693 58.7148 8.63468 58.0603 8.37247C57.4058 8.11026 56.7049 7.98353 56 7.99995ZM56 15.9999C55.6453 16.0171 55.2909 15.9599 54.9596 15.8319C54.6283 15.704 54.3274 15.5081 54.0763 15.257C53.8252 15.0059 53.6293 14.705 53.5014 14.3737C53.3735 14.0424 53.3162 13.688 53.3334 13.3333C53.3162 12.9785 53.3735 12.6242 53.5014 12.2929C53.6293 11.9616 53.8252 11.6607 54.0763 11.4095C54.3274 11.1584 54.6283 10.9626 54.9596 10.8346C55.2909 10.7067 55.6453 10.6495 56 10.6666C56.3548 10.6495 56.7092 10.7067 57.0405 10.8346C57.3718 10.9626 57.6726 11.1584 57.9238 11.4095C58.1749 11.6607 58.3707 11.9616 58.4987 12.2929C58.6266 12.6242 58.6838 12.9785 58.6667 13.3333C58.6838 13.688 58.6266 14.0424 58.4987 14.3737C58.3707 14.705 58.1749 15.0059 57.9238 15.257C57.6726 15.5081 57.3718 15.704 57.0405 15.8319C56.7092 15.9599 56.3548 16.0171 56 15.9999Z" fill="white"/>
</svg>
