<svg width="18" height="18" viewBox="0 0 18 18" fill="none" xmlns="http://www.w3.org/2000/svg">
<rect width="18" height="18" fill="#E5E5E5"/>
<g clip-path="url(#clip0_1717_229)">
<rect width="1440" height="1451" transform="translate(-114 -473)" fill="white"/>
<g filter="url(#filter0_d_1717_229)">
<rect x="-27" y="-176" width="411" height="221" rx="8" fill="white"/>
</g>
<path fill-rule="evenodd" clip-rule="evenodd" d="M15 5C15 4.60218 15.158 4.22064 15.4393 3.93934C15.7206 3.65804 16.1022 3.5 16.5 3.5C16.8978 3.5 17.2794 3.65804 17.5607 3.93934C17.842 4.22064 18 4.60218 18 5V15.1515L16.5 17.4015L15 15.1515V5ZM16.5 4.5C16.3674 4.5 16.2402 4.55268 16.1464 4.64645C16.0527 4.74022 16 4.86739 16 5V14.8485L16.5 15.5985L17 14.8485V5C17 4.86739 16.9473 4.74022 16.8536 4.64645C16.7598 4.55268 16.6326 4.5 16.5 4.5Z" fill="#1D8FF2"/>
<path fill-rule="evenodd" clip-rule="evenodd" d="M17.5 7H15.5V6H17.5V7ZM2 1C1.73478 1 1.48043 1.10536 1.29289 1.29289C1.10536 1.48043 1 1.73478 1 2V16C1 16.2652 1.10536 16.5196 1.29289 16.7071C1.48043 16.8946 1.73478 17 2 17H12C12.2652 17 12.5196 16.8946 12.7071 16.7071C12.8946 16.5196 13 16.2652 13 16V2C13 1.73478 12.8946 1.48043 12.7071 1.29289C12.5196 1.10536 12.2652 1 12 1H2ZM0 2C0 1.46957 0.210714 0.960859 0.585786 0.585786C0.960859 0.210714 1.46957 0 2 0H12C12.5304 0 13.0391 0.210714 13.4142 0.585786C13.7893 0.960859 14 1.46957 14 2V16C14 16.5304 13.7893 17.0391 13.4142 17.4142C13.0391 17.7893 12.5304 18 12 18H2C1.46957 18 0.960859 17.7893 0.585786 17.4142C0.210714 17.0391 0 16.5304 0 16V2Z" fill="#1D8FF2"/>
<path fill-rule="evenodd" clip-rule="evenodd" d="M6.99998 4.5C6.99998 4.36739 7.05266 4.24021 7.14643 4.14645C7.24019 4.05268 7.36737 4 7.49998 4H11.5C11.6326 4 11.7598 4.05268 11.8535 4.14645C11.9473 4.24021 12 4.36739 12 4.5C12 4.63261 11.9473 4.75979 11.8535 4.85355C11.7598 4.94732 11.6326 5 11.5 5H7.49998C7.36737 5 7.24019 4.94732 7.14643 4.85355C7.05266 4.75979 6.99998 4.63261 6.99998 4.5ZM6.99998 6.5C6.99998 6.36739 7.05266 6.24021 7.14643 6.14645C7.24019 6.05268 7.36737 6 7.49998 6H11.5C11.6326 6 11.7598 6.05268 11.8535 6.14645C11.9473 6.24021 12 6.36739 12 6.5C12 6.63261 11.9473 6.75979 11.8535 6.85355C11.7598 6.94732 11.6326 7 11.5 7H7.49998C7.36737 7 7.24019 6.94732 7.14643 6.85355C7.05266 6.75979 6.99998 6.63261 6.99998 6.5ZM6.99998 11C6.99998 10.8674 7.05266 10.7402 7.14643 10.6464C7.24019 10.5527 7.36737 10.5 7.49998 10.5H11.5C11.6326 10.5 11.7598 10.5527 11.8535 10.6464C11.9473 10.7402 12 10.8674 12 11C12 11.1326 11.9473 11.2598 11.8535 11.3536C11.7598 11.4473 11.6326 11.5 11.5 11.5H7.49998C7.36737 11.5 7.24019 11.4473 7.14643 11.3536C7.05266 11.2598 6.99998 11.1326 6.99998 11ZM6.99998 13C6.99998 12.8674 7.05266 12.7402 7.14643 12.6464C7.24019 12.5527 7.36737 12.5 7.49998 12.5H11.5C11.6326 12.5 11.7598 12.5527 11.8535 12.6464C11.9473 12.7402 12 12.8674 12 13C12 13.1326 11.9473 13.2598 11.8535 13.3536C11.7598 13.4473 11.6326 13.5 11.5 13.5H7.49998C7.36737 13.5 7.24019 13.4473 7.14643 13.3536C7.05266 13.2598 6.99998 13.1326 6.99998 13ZM2.99998 11V12.5H4.49998V11H2.99998ZM2.49998 10H4.99998C5.13259 10 5.25977 10.0527 5.35353 10.1464C5.4473 10.2402 5.49998 10.3674 5.49998 10.5V13C5.49998 13.1326 5.4473 13.2598 5.35353 13.3536C5.25977 13.4473 5.13259 13.5 4.99998 13.5H2.49998C2.36737 13.5 2.24019 13.4473 2.14643 13.3536C2.05266 13.2598 1.99998 13.1326 1.99998 13V10.5C1.99998 10.3674 2.05266 10.2402 2.14643 10.1464C2.24019 10.0527 2.36737 10 2.49998 10V10ZM5.85348 4.1465C5.94722 4.24026 5.99987 4.36742 5.99987 4.5C5.99987 4.63258 5.94722 4.75974 5.85348 4.8535L3.49998 7.207L2.14648 5.8535C2.09872 5.80738 2.06063 5.7522 2.03443 5.6912C2.00822 5.6302 1.99443 5.56459 1.99385 5.4982C1.99328 5.43181 2.00593 5.36597 2.03107 5.30452C2.05621 5.24308 2.09334 5.18725 2.14028 5.1403C2.18723 5.09336 2.24305 5.05623 2.3045 5.03109C2.36595 5.00595 2.43179 4.9933 2.49818 4.99387C2.56457 4.99445 2.63018 5.00825 2.69118 5.03445C2.75218 5.06065 2.80736 5.09874 2.85348 5.1465L3.49998 5.793L5.14648 4.1465C5.24024 4.05276 5.3674 4.00011 5.49998 4.00011C5.63256 4.00011 5.75972 4.05276 5.85348 4.1465V4.1465Z" fill="#1D8FF2"/>
<g filter="url(#filter1_d_1717_229)">
<rect x="21" y="-134" width="347" height="198" rx="4" fill="white"/>
</g>
</g>
<defs>
<filter id="filter0_d_1717_229" x="-35" y="-181" width="427" height="237" filterUnits="userSpaceOnUse" color-interpolation-filters="sRGB">
<feFlood flood-opacity="0" result="BackgroundImageFix"/>
<feColorMatrix in="SourceAlpha" type="matrix" values="0 0 0 0 0 0 0 0 0 0 0 0 0 0 0 0 0 0 127 0" result="hardAlpha"/>
<feOffset dy="3"/>
<feGaussianBlur stdDeviation="4"/>
<feComposite in2="hardAlpha" operator="out"/>
<feColorMatrix type="matrix" values="0 0 0 0 0.284071 0 0 0 0 0.697107 0 0 0 0 1 0 0 0 0.16 0"/>
<feBlend mode="normal" in2="BackgroundImageFix" result="effect1_dropShadow_1717_229"/>
<feBlend mode="normal" in="SourceGraphic" in2="effect1_dropShadow_1717_229" result="shape"/>
</filter>
<filter id="filter1_d_1717_229" x="1" y="-146" width="387" height="238" filterUnits="userSpaceOnUse" color-interpolation-filters="sRGB">
<feFlood flood-opacity="0" result="BackgroundImageFix"/>
<feColorMatrix in="SourceAlpha" type="matrix" values="0 0 0 0 0 0 0 0 0 0 0 0 0 0 0 0 0 0 127 0" result="hardAlpha"/>
<feOffset dy="8"/>
<feGaussianBlur stdDeviation="10"/>
<feComposite in2="hardAlpha" operator="out"/>
<feColorMatrix type="matrix" values="0 0 0 0 0 0 0 0 0 0 0 0 0 0 0 0 0 0 0.16 0"/>
<feBlend mode="normal" in2="BackgroundImageFix" result="effect1_dropShadow_1717_229"/>
<feBlend mode="normal" in="SourceGraphic" in2="effect1_dropShadow_1717_229" result="shape"/>
</filter>
<clipPath id="clip0_1717_229">
<rect width="1440" height="1451" fill="white" transform="translate(-114 -473)"/>
</clipPath>
</defs>
</svg>
